# xmcd CD database file
#
# Track frame offsets:
#	150
#	12115
#	25357
#	37820
#	45525
#	59517
#	69912
#	81460
#	93375
#	106432
#	119405
#	127487
#	140517
#	155457
#	173560
#	186552
#	198600
#	210505
#	226022
#	236167
#	248645
#	260915
#
# Disc length: 3611 seconds
#
# Revision: 2
# Processed by: cddbd v1.5.1PL2 Copyright (c) Steve Scherf et al.
# Submitted via: CDex 1.51
#
DISCID=3e0e1916
DTITLE=Various Artist - Country Gold 90 Great Hits Vol 4
DYEAR=1991
DGENRE=Country
TTITLE0=Johnny Tillotson - Talk Back Trembling Lips
TTITLE1=Lynn Anderson - Rose Garden
TTITLE2=Faron Young - It's Four In The Morning
TTITLE3=Roger Miller - Do Waka Do
TTITLE4=Billie Jo Spears - Mr Walker, It's All Over
TTITLE5=Conway Twitty - It's Only Make Believe
TTITLE6=Donna fargo - The Happiest Girl In The Whole USA
TTITLE7=Johnny Tilotson - Heartaches By The Number
TTITLE8=Porter Wagoner - Carroll County Accident
TTITLE9=Kenny Rogers - Ruby, Don't Take Your Love To Town
TTITLE10=Freddy Fender - Wasted Days and Wasted Nights
TTITLE11=Johnny Tillotson - It Keeps Right On A-hurtin'
TTITLE12=Jeannie C Riley - Harper Valley PTA
TTITLE13=Rick Nelson - Garden Party
TTITLE14=Johnny Cash - Folsom Prison Blues
TTITLE15=Donna Fargo - Funny Face
TTITLE16=Conway Twitty - Linda On My Mind
TTITLE17=Melba Montgomery - No Charge
TTITLE18=Hank Locklin - Please Help Me I'm Falling
TTITLE19=Dean Martin - Everybody Loves Somebody
TTITLE20=Kenny Rogers - Reuben James
TTITLE21=Jim Reeves - He'll Have To Go
EXTD=YEAR: 1991
EXTT0=
EXTT1=
EXTT2=
EXTT3=
EXTT4=
EXTT5=
EXTT6=
EXTT7=
EXTT8=
EXTT9=
EXTT10=
EXTT11=
EXTT12=
EXTT13=
EXTT14=
EXTT15=
EXTT16=
EXTT17=
EXTT18=
EXTT19=
EXTT20=
EXTT21=
PLAYORDER=
